<?xml version="1.0" encoding="UTF-8"?>
<!DOCTYPE svg PUBLIC "-//W3C//DTD SVG 1.1//EN" "http://www.w3.org/Graphics/SVG/1.1/DTD/svg11.dtd">
<!-- Creator: CorelDRAW -->
<svg xmlns="http://www.w3.org/2000/svg" xml:space="preserve" width="200px" height="325px" version="1.1" style="shape-rendering:geometricPrecision; text-rendering:geometricPrecision; image-rendering:optimizeQuality; fill-rule:evenodd; clip-rule:evenodd"
viewBox="0 0 1.19 1.94"
 xmlns:xlink="http://www.w3.org/1999/xlink"
 xmlns:xodm="http://www.corel.com/coreldraw/odm/2003">
 <defs>
  <style type="text/css">
   <![CDATA[
    .fil0 {fill:#DBFED5;fill-rule:nonzero}
   ]]>
  </style>
 </defs>
 <g id="Layer_x0020_1">
  <metadata id="CorelCorpID_0Corel-Layer"/>
  <path class="fil0" d="M0 1.71c0,0 0,0 0,0 0,0.13 0.1,0.23 0.23,0.23 0.06,0 0.12,-0.03 0.16,-0.07l0.74 -0.73c0.04,-0.05 0.06,-0.1 0.06,-0.17 0,0 0,0 0,0 0,0 0,0 0,0 0,-0.01 0,-0.01 0,-0.01 0,-0.06 -0.02,-0.12 -0.06,-0.16l-0.74 -0.74c-0.04,-0.04 -0.1,-0.06 -0.16,-0.06 -0.12,0 -0.23,0.1 -0.23,0.23 0,0.06 0.03,0.12 0.07,0.16l0.58 0.58 -0.58 0.58c-0.05,0.04 -0.07,0.1 -0.07,0.16 0,0 0,0 0,0l0 0z"/>
 </g>
</svg>
