<?xml version="1.0" encoding="UTF-8"?>
<!DOCTYPE svg PUBLIC "-//W3C//DTD SVG 1.1//EN" "http://www.w3.org/Graphics/SVG/1.1/DTD/svg11.dtd">
<!-- Creator: CorelDRAW -->
<svg xmlns="http://www.w3.org/2000/svg" xml:space="preserve" width="512px" height="500px" version="1.1" style="shape-rendering:geometricPrecision; text-rendering:geometricPrecision; image-rendering:optimizeQuality; fill-rule:evenodd; clip-rule:evenodd"
viewBox="0 0 5.04 4.92"
 xmlns:xlink="http://www.w3.org/1999/xlink"
 xmlns:xodm="http://www.corel.com/coreldraw/odm/2003">
 <defs>
  <style type="text/css">
   <![CDATA[
    .fil0 {fill:black;fill-rule:nonzero}
   ]]>
  </style>
 </defs>
 <g id="Layer_x0020_1">
  <metadata id="CorelCorpID_0Corel-Layer"/>
  <g id="_2400785760976">
   <path class="fil0" d="M5.01 1.61c-0.02,-0.02 -0.05,-0.04 -0.09,-0.03l-0.83 0.08c-0.24,0.03 -0.47,0.15 -0.62,0.34l-0.58 0.75 -2.38 -0.02c-0.28,0 -0.51,0.22 -0.51,0.5 0,0.46 0.31,0.87 0.75,0.99l0.3 0.08 0.07 0.17c0.11,0.27 0.37,0.45 0.67,0.45l0.67 0c0.36,0 0.66,-0.26 0.72,-0.61l0.18 -1 0.54 -0.77 0.48 -0.14c0.16,-0.05 0.3,-0.14 0.42,-0.26 0.12,-0.12 0.2,-0.27 0.23,-0.44 0.01,-0.03 0,-0.06 -0.02,-0.09zm-0.29 0.46c-0.1,0.1 -0.23,0.18 -0.37,0.22l-0.51 0.15 -0.59 0.83 -0.18 1.03c-0.05,0.29 -0.3,0.51 -0.61,0.51l-0.67 0c-0.25,0 -0.48,-0.15 -0.57,-0.39l-0.09 -0.21 -0.35 -0.09c-0.39,-0.11 -0.67,-0.48 -0.67,-0.89 0,-0.22 0.18,-0.39 0.4,-0.39l2.43 0.02 0.62 -0.79c0.13,-0.17 0.33,-0.28 0.54,-0.3l0.83 -0.08c-0.04,0.14 -0.11,0.27 -0.21,0.38z"/>
   <path class="fil0" d="M1.08 3.3c-0.02,-0.11 -0.11,-0.19 -0.22,-0.19l-0.35 0c-0.07,0 -0.13,0.05 -0.13,0.12 0,0.29 0.2,0.54 0.47,0.62l0.08 0.02c0.01,0.01 0.03,0.01 0.04,0.01 0.04,0 0.08,-0.02 0.11,-0.04 0.05,-0.04 0.07,-0.1 0.06,-0.16l-0.06 -0.38zm-0.07 0.45c-0.01,0.02 -0.03,0.02 -0.05,0.02l-0.08 -0.02c-0.23,-0.07 -0.39,-0.28 -0.39,-0.52 0,0 0.01,-0.01 0.02,-0.01l0.34 0c0.06,0 0.11,0.04 0.12,0.1l0.06 0.38c0,0.02 0,0.04 -0.02,0.05z"/>
   <path class="fil0" d="M2.68 2.09c0.19,0 0.34,-0.15 0.34,-0.34 0,-0.12 -0.14,-0.33 -0.25,-0.49 -0.02,-0.03 -0.05,-0.04 -0.09,-0.04 0,0 0,0 0,0 -0.03,0 -0.06,0.01 -0.09,0.04 -0.11,0.16 -0.24,0.37 -0.24,0.49 0,0.19 0.15,0.34 0.33,0.34zm0 -0.76c0.14,0.19 0.23,0.35 0.23,0.42 0,0.13 -0.1,0.23 -0.23,0.23 -0.12,0 -0.22,-0.1 -0.22,-0.23 0,-0.07 0.09,-0.23 0.22,-0.42z"/>
   <path class="fil0" d="M2.13 0.87c0.18,0 0.33,-0.15 0.33,-0.33 0,-0.13 -0.13,-0.34 -0.24,-0.49 -0.02,-0.03 -0.06,-0.05 -0.09,-0.05 0,0 0,0 0,0 -0.04,0 -0.07,0.02 -0.09,0.05 -0.11,0.15 -0.24,0.36 -0.24,0.49 0,0.18 0.14,0.33 0.33,0.33zm0 -0.76c0.14,0.19 0.22,0.36 0.22,0.43 0,0.12 -0.1,0.22 -0.22,0.22 -0.12,0 -0.22,-0.1 -0.22,-0.22 0,-0.07 0.08,-0.24 0.22,-0.43z"/>
   <path class="fil0" d="M1.55 2.44c0.28,0 0.51,-0.23 0.51,-0.52 0,-0.2 -0.26,-0.6 -0.42,-0.81 -0.02,-0.03 -0.06,-0.05 -0.09,-0.05 -0.04,0 -0.08,0.02 -0.1,0.05 -0.16,0.21 -0.42,0.61 -0.42,0.81 0,0.29 0.23,0.52 0.52,0.52zm-0.01 -1.27c0,0 0,0 0.01,0 0,0 0,0 0.01,0 0.24,0.35 0.39,0.63 0.39,0.75 0,0.23 -0.18,0.41 -0.4,0.41 -0.23,0 -0.41,-0.18 -0.41,-0.41 0,-0.12 0.15,-0.4 0.4,-0.75z"/>
  </g>
 </g>
</svg>
