<?xml version="1.0" encoding="UTF-8"?>
<!DOCTYPE svg PUBLIC "-//W3C//DTD SVG 1.1//EN" "http://www.w3.org/Graphics/SVG/1.1/DTD/svg11.dtd">
<!-- Creator: CorelDRAW -->
<svg xmlns="http://www.w3.org/2000/svg" xml:space="preserve" width="500px" height="500px" version="1.1" style="shape-rendering:geometricPrecision; text-rendering:geometricPrecision; image-rendering:optimizeQuality; fill-rule:evenodd; clip-rule:evenodd"
viewBox="0 0 4.6 4.6"
 xmlns:xlink="http://www.w3.org/1999/xlink"
 xmlns:xodm="http://www.corel.com/coreldraw/odm/2003">
 <defs>
  <style type="text/css">
   <![CDATA[
    .fil0 {fill:black;fill-rule:nonzero}
   ]]>
  </style>
 </defs>
 <g id="Layer_x0020_1">
  <metadata id="CorelCorpID_0Corel-Layer"/>
  <path class="fil0" d="M0.25 3.33c-0.02,0.02 -0.04,0.03 -0.05,0.04 -0.27,0.27 -0.27,0.7 0,0.96 0.22,0.23 0.65,0.27 0.92,0.27 0.13,0 0.23,-0.01 0.24,-0.01 0.03,-0.01 0.05,-0.03 0.05,-0.05 0,-0.04 0.08,-0.83 -0.25,-1.17 -0.13,-0.12 -0.3,-0.19 -0.48,-0.19 -0.12,0 -0.24,0.03 -0.34,0.09 -0.15,-0.3 -0.23,-0.63 -0.23,-0.97 0,-1.21 0.98,-2.19 2.19,-2.19 1.2,0 2.18,0.98 2.18,2.19 0,1.2 -0.98,2.18 -2.18,2.18 -0.03,0 -0.06,0.03 -0.06,0.06 0,0.03 0.03,0.06 0.06,0.06 1.27,0 2.3,-1.03 2.3,-2.3 0,-1.27 -1.03,-2.3 -2.3,-2.3 -1.27,0 -2.3,1.03 -2.3,2.3 0,0.36 0.09,0.71 0.25,1.03zm0.05 0.11c0.08,0.14 0.18,0.27 0.29,0.4 0.02,0.02 0.06,0.02 0.08,0 0.03,-0.02 0.03,-0.06 0.01,-0.08 -0.11,-0.12 -0.21,-0.25 -0.29,-0.39 0.09,-0.05 0.19,-0.08 0.29,-0.08 0.15,0 0.29,0.06 0.4,0.17 0.25,0.25 0.23,0.84 0.22,1.02 -0.17,0.01 -0.76,0.03 -1.02,-0.23 -0.22,-0.22 -0.22,-0.57 0,-0.79 0.01,-0.01 0.01,-0.02 0.02,-0.02z"/>
  <path class="fil0" d="M3.69 2.3c0,-0.77 -0.62,-1.4 -1.39,-1.4 -0.77,0 -1.4,0.63 -1.4,1.4 0,0.77 0.63,1.39 1.4,1.39 0.77,0 1.39,-0.62 1.39,-1.39zm-0.12 -0.14c-0.13,-0.01 -0.27,0.04 -0.35,0.07 -0.06,0.02 -0.11,0.04 -0.16,0.05 -0.12,0.02 -0.34,0.05 -0.48,-0.07 -0.08,-0.06 -0.09,-0.16 -0.08,-0.24 0.03,-0.23 0.23,-0.53 0.57,-0.69 0.27,0.21 0.46,0.52 0.5,0.88zm-1.27 -1.14c0,0 0,0 0,0 -0.36,0.98 -1.08,1.05 -1.26,1.06 0.1,-0.6 0.63,-1.06 1.26,-1.06zm-1.28 1.28c0,-0.04 0,-0.07 0,-0.11 0.08,0 0.29,-0.01 0.53,-0.12 0.27,-0.13 0.65,-0.42 0.87,-1.05 0.2,0.02 0.38,0.09 0.54,0.18 -0.35,0.19 -0.54,0.52 -0.57,0.76 -0.02,0.14 0.02,0.27 0.12,0.34 0.1,0.09 0.24,0.11 0.36,0.11 0.08,0 0.15,-0.01 0.21,-0.02 0.06,-0.01 0.12,-0.03 0.18,-0.05 0.06,-0.03 0.2,-0.07 0.32,-0.07 0,0.01 0,0.02 0,0.03 0,0.49 -0.28,0.92 -0.69,1.13 -0.01,-0.74 -0.58,-0.76 -0.77,-0.77 -0.23,-0.01 -0.28,-0.04 -0.53,-0.22 -0.07,-0.05 -0.14,-0.07 -0.22,-0.06 -0.14,0.02 -0.25,0.12 -0.32,0.19 -0.02,-0.09 -0.03,-0.18 -0.03,-0.27zm0.06 0.4c0.06,-0.06 0.18,-0.19 0.3,-0.21 0.05,0 0.1,0.01 0.14,0.04 0.26,0.19 0.34,0.23 0.6,0.24 0.31,0.02 0.67,0.11 0.66,0.72 -0.15,0.06 -0.31,0.09 -0.48,0.09 -0.57,0 -1.05,-0.37 -1.22,-0.88z"/>
 </g>
</svg>
