<?xml version="1.0" encoding="UTF-8"?>
<!DOCTYPE svg PUBLIC "-//W3C//DTD SVG 1.1//EN" "http://www.w3.org/Graphics/SVG/1.1/DTD/svg11.dtd">
<!-- Creator: CorelDRAW -->
<svg xmlns="http://www.w3.org/2000/svg" xml:space="preserve" width="714px" height="1273px" version="1.1" style="shape-rendering:geometricPrecision; text-rendering:geometricPrecision; image-rendering:optimizeQuality; fill-rule:evenodd; clip-rule:evenodd"
viewBox="0 0 4739.2 8452.79"
 xmlns:xlink="http://www.w3.org/1999/xlink"
 xmlns:xodm="http://www.corel.com/coreldraw/odm/2003">
 <defs>
  <style type="text/css">
   <![CDATA[
    .fil1 {fill:#CAE5C4}
    .fil0 {fill:#CAE5C4;fill-rule:nonzero}
   ]]>
  </style>
 </defs>
 <g id="Layer_x0020_1">
  <metadata id="CorelCorpID_0Corel-Layer"/>
  <g id="_3275563745216">
   <path class="fil0" d="M2373.46 3760.47c472.63,0 886.19,89.76 1240.67,269.29 354.47,179.53 630.6,440.22 828.39,782.06 197.79,341.84 296.68,758.69 296.68,1250.55 0,477.1 -101.46,895.18 -304.38,1254.23 -202.92,359.06 -482.91,638.19 -839.96,837.39 -357.04,199.2 -766.75,298.8 -1229.11,298.8 -472.63,0 -886.19,-89.76 -1240.66,-269.29 -354.49,-179.53 -630.61,-441.44 -828.4,-785.74 -197.79,-344.3 -296.69,-759.92 -296.69,-1246.86 0,-477.1 101.48,-895.18 304.4,-1254.23 202.92,-359.07 482.91,-638.2 839.95,-837.39 357.04,-199.21 766.74,-298.81 1229.11,-298.81zm-30.83 132.8c-318.51,0 -595.93,94.68 -832.24,284.05 -236.32,189.36 -418.7,451.28 -547.13,785.75 -128.44,334.46 -192.66,720.57 -192.66,1158.31 0,447.6 73.22,836.17 219.63,1165.71 146.41,329.54 342.92,584.08 589.51,763.61 246.59,179.53 518.88,269.29 816.84,269.29 318.51,0 595.92,-94.68 832.25,-284.05 236.32,-189.36 418.69,-452.51 547.12,-789.43 128.44,-336.92 192.65,-721.8 192.65,-1154.63 0,-452.51 -73.2,-842.31 -219.62,-1169.39 -146.41,-327.09 -341.63,-580.4 -585.66,-759.93 -244.02,-179.52 -517.58,-269.29 -820.69,-269.29z"/>
   <path class="fil1" d="M2513.01 0c18.4,40.3 10.14,64.82 32.82,92.48 67.77,149.82 112.67,451.01 75.04,613.77 -117.61,463.77 -234.06,495.84 -302.71,631.59 -161.01,-210.82 -205.36,-511.68 -191.42,-704.4 8.4,-115.88 29.18,-219.49 97.89,-352.4 65.6,-126.91 151,-251.66 288.38,-281.04z"/>
   <path class="fil1" d="M1059.26 768.78c313.63,55.44 745.4,540.58 979.31,840.35 -364.82,53.49 -978.84,-214.47 -1083.15,-664.61 -28.37,-122.47 7.18,-170.12 103.84,-175.74z"/>
   <path class="fil1" d="M2600.98 2766.06c4.8,-44.3 24.53,-61.25 19.12,-96.82 18.34,-164.34 221.42,-399.89 337.55,-521.3 102.6,-107.25 369.8,-356.46 498.88,-438.57 30.95,264.98 -85.22,547.89 -196.25,707.36 -66.78,95.89 -137.95,174.8 -265.61,254.43 -121.91,76.05 -259.81,140.06 -393.69,94.9z"/>
   <path class="fil1" d="M2235.24 3866.8l209.04 0c-11.72,-52.84 -25.02,-109.48 -33.59,-185.75 -43.72,-389.31 -126.11,-547.19 9.42,-719.46l254.11 -235.28c5.95,-4.34 38.9,-25.78 39.03,-25.88l144.5 -130.19c54.37,-37.97 88.59,-35.15 125.63,-94.19 11.66,-18.59 2.44,15.32 24.18,-56.51 -121.29,19.17 -91.81,47.85 -196.37,99.2 -69.22,34.02 -101.17,83.17 -165.31,137.32l-186.86 132.28c-44.88,37.6 -47.38,59.62 -122.41,79.27 -27.64,-51.68 -27.11,-137.65 -28.09,-201.2 -5.64,-360.13 -37.83,-856.04 25.1,-1179.17 14.81,-76.09 18.03,-115.24 20.1,-207.91 4.43,-200.06 79.42,-315.21 54.53,-512.55l-49.24 -37.99c-1.63,6.62 -2.77,11.89 -4.13,19.07 -3.85,20.46 -3.33,42.2 -5.14,62.41 -8.57,94.99 -7.88,59.49 -25.15,118.93l-55.2 543.26c-7.41,76.29 -23.44,177.02 -64,230.9 -25.92,-59.42 7.64,-12.73 -68.13,-53.49 -99.38,-53.48 -172.17,-129.72 -272.02,-180.34 -9.93,-5.01 -35.12,-14.51 -46.41,-18.64 -113.26,-41.38 -134.76,-94.34 -277.09,-93.81 19.23,54.22 35.63,56.64 86.37,80.96 153.13,73.37 272.43,123.61 413.86,222.18 3.73,2.6 8.86,6.2 12.47,8.92l141.35 137.27c54.77,92.4 8.87,881.27 8.61,1051.82 -12.21,334.29 15.96,673.5 30.84,1008.57z"/>
  </g>
 </g>
</svg>
