<?xml version="1.0" encoding="UTF-8"?>
<!DOCTYPE svg PUBLIC "-//W3C//DTD SVG 1.1//EN" "http://www.w3.org/Graphics/SVG/1.1/DTD/svg11.dtd">
<!-- Creator: CorelDRAW -->
<svg xmlns="http://www.w3.org/2000/svg" xml:space="preserve" width="218px" height="500px" version="1.1" style="shape-rendering:geometricPrecision; text-rendering:geometricPrecision; image-rendering:optimizeQuality; fill-rule:evenodd; clip-rule:evenodd"
viewBox="0 0 0.91 2.08"
 xmlns:xlink="http://www.w3.org/1999/xlink"
 xmlns:xodm="http://www.corel.com/coreldraw/odm/2003">
 <defs>
  <style type="text/css">
   <![CDATA[
    .fil0 {fill:black;fill-rule:nonzero}
   ]]>
  </style>
 </defs>
 <g id="Layer_x0020_1">
  <metadata id="CorelCorpID_0Corel-Layer"/>
  <path class="fil0" d="M0.89 0l-0.87 0c-0.01,0 -0.02,0.01 -0.02,0.02l0 0.19c0,0.01 0.01,0.02 0.02,0.02l0.05 0 0 1.46c0,0.22 0.17,0.39 0.38,0.39 0.22,0 0.39,-0.17 0.39,-0.39l0 -1.46 0.05 0c0.01,0 0.02,-0.01 0.02,-0.02l0 -0.19c0,-0.01 -0.01,-0.02 -0.02,-0.02l0 0zm-0.09 0.38l-0.23 0c-0.01,0 -0.02,0.01 -0.02,0.02 0,0.01 0.01,0.02 0.02,0.02l0.23 0 0 0.26 -0.23 0c-0.01,0 -0.02,0 -0.02,0.02 0,0.01 0.01,0.02 0.02,0.02l0.23 0 0 0.25 -0.23 0c-0.01,0 -0.02,0.01 -0.02,0.02 0,0.01 0.01,0.02 0.02,0.02l0.23 0 0 0.25 -0.23 0c-0.01,0 -0.02,0.01 -0.02,0.02 0,0.01 0.01,0.02 0.02,0.02l0.23 0 0 0.26 -0.23 0c-0.01,0 -0.02,0.01 -0.02,0.02 0,0.01 0.01,0.02 0.02,0.02l0.23 0 0 0.09c0,0.19 -0.16,0.35 -0.35,0.35 -0.19,0 -0.34,-0.16 -0.34,-0.35l0 -1.46 0.69 0 0 0.15zm0.07 -0.19l-0.83 0 0 -0.15 0.83 0 0 0.15z"/>
 </g>
</svg>
