<svg xmlns="http://www.w3.org/2000/svg" xml:space="preserve" width="250px" height="251px" version="1.1" style="shape-rendering:geometricPrecision; text-rendering:geometricPrecision; image-rendering:optimizeQuality; fill-rule:evenodd; clip-rule:evenodd" viewBox="0 0 55.88 56.09" xmlns:xlink="http://www.w3.org/1999/xlink" xmlns:xodm="http://www.corel.com/coreldraw/odm/2003"> <defs>  <style type="text/css">   <![CDATA[    .fil0 {fill:black;fill-rule:nonzero}   ]]>  </style> </defs> <g id="Layer_x0020_1">  <metadata id="CorelCorpID_0Corel-Layer"/>  <g id="_2289781105632">   <g>    <path class="fil0" d="M54.7 50.29l-8.48 -8.49c-0.24,-0.24 -0.26,-0.62 -0.04,-0.88 3.5,-4.09 5.1,-10.58 5.1,-14.88 0,-13.87 -12.17,-26.04 -26.04,-26.04 -13.92,0 -25.24,11.32 -25.24,25.24 0,13.88 12.17,26.05 26.04,26.05 4.27,0 10.79,-1.71 14.46,-4.86 0.13,-0.11 0.27,-0.16 0.43,-0.16 0.17,0 0.34,0.07 0.46,0.19l8.56 8.57c0.69,0.68 1.54,1.06 2.42,1.06 0.79,0 1.52,-0.31 2.12,-0.9l0.59 -0.6c1.45,-1.44 0.7,-3.22 -0.38,-4.3zm-28.66 -5.67c-10.32,0 -19.38,-9.05 -19.38,-19.38 0,-10.24 8.34,-18.58 18.58,-18.58 10.32,0 19.37,9.06 19.37,19.38 0,10.25 -8.33,18.58 -18.57,18.58z"/>    <path class="fil0" d="M32.16 22.85l-3.71 0 0 -3.71c0,-1.56 -1.27,-2.83 -2.84,-2.83 -1.56,0 -2.84,1.27 -2.84,2.83l0 3.71 -3.71 0c-1.56,0 -2.83,1.27 -2.83,2.84 0,1.57 1.27,2.84 2.83,2.84l3.71 0 0 3.71c0,1.57 1.28,2.84 2.84,2.84 1.57,0 2.84,-1.28 2.84,-2.84l0 -3.71 3.71 0c1.57,0 2.84,-1.27 2.84,-2.84 0,-1.57 -1.27,-2.84 -2.84,-2.84z"/>   </g>  </g> </g></svg>